<?xml version="1.0" standalone="no"?>
<!DOCTYPE svg PUBLIC "-//W3C//DTD SVG 20010904//EN"
 "http://www.w3.org/TR/2001/REC-SVG-20010904/DTD/svg10.dtd">
<svg version="1.0" xmlns="http://www.w3.org/2000/svg"
 width="1024.000000pt" height="1024.000000pt" viewBox="0 0 1024.000000 1024.000000"
 preserveAspectRatio="xMidYMid meet">

<g transform="translate(0.000000,1024.000000) scale(0.100000,-0.100000)"
fill="#000000" stroke="none">
<path d="M4720 9765 c-446 -40 -866 -138 -1257 -290 -189 -74 -503 -222 -503
-236 0 -5 -36 -27 -81 -49 -99 -48 -147 -76 -179 -106 -14 -12 -65 -48 -115
-78 -49 -31 -96 -60 -102 -66 -7 -6 -30 -20 -50 -32 -48 -27 -123 -86 -146
-115 -9 -12 -57 -51 -105 -86 -48 -35 -119 -94 -158 -131 -40 -36 -76 -66 -81
-66 -8 0 -89 -82 -238 -243 -25 -26 -45 -52 -45 -57 0 -4 -12 -19 -28 -32 -15
-13 -60 -67 -101 -121 -40 -54 -82 -102 -93 -108 -11 -6 -17 -13 -14 -16 6 -7
-30 -62 -52 -81 -9 -6 -17 -18 -18 -26 -3 -23 -36 -66 -45 -60 -5 3 -9 -4 -9
-15 0 -12 -11 -31 -25 -43 -14 -12 -25 -29 -25 -39 0 -19 -64 -109 -87 -122
-7 -4 -13 -16 -13 -27 0 -10 -7 -26 -15 -34 -9 -9 -29 -48 -46 -88 -16 -40
-38 -80 -48 -89 -22 -18 -91 -153 -111 -216 -7 -24 -17 -43 -22 -43 -4 0 -8
-5 -8 -11 0 -6 -6 -25 -14 -42 -7 -18 -26 -68 -42 -112 -15 -44 -31 -82 -35
-85 -24 -17 -159 -473 -205 -695 -14 -66 -29 -172 -34 -235 -6 -63 -14 -126
-19 -140 -14 -37 -31 -330 -31 -542 0 -288 23 -552 69 -788 6 -30 18 -95 27
-145 18 -100 119 -462 134 -480 5 -6 16 -38 25 -71 17 -66 63 -193 76 -210 5
-6 18 -35 28 -65 21 -60 65 -151 151 -314 32 -60 70 -134 84 -162 13 -29 36
-67 49 -85 13 -18 41 -64 61 -101 21 -38 57 -92 81 -121 23 -29 48 -64 55 -77
7 -13 16 -26 19 -29 4 -3 36 -43 73 -90 36 -47 76 -94 88 -105 12 -11 30 -36
41 -55 10 -19 54 -71 99 -114 44 -44 80 -85 80 -92 0 -18 146 -170 205 -214
27 -21 95 -80 150 -131 214 -201 647 -490 945 -630 178 -84 208 -98 242 -113
20 -9 40 -16 45 -16 4 0 28 -11 53 -24 60 -32 267 -107 308 -112 18 -2 43 -11
55 -18 29 -19 286 -89 440 -120 299 -60 522 -85 852 -96 211 -6 278 -4 430 11
290 29 594 82 687 118 l27 10 -28 63 c-16 35 -41 102 -56 151 -15 48 -32 87
-36 87 -5 0 -9 8 -9 18 0 9 -9 31 -20 47 -11 17 -20 32 -20 35 0 3 16 30 35
60 30 46 54 100 71 159 3 11 8 10 28 -2 34 -23 137 -132 169 -180 15 -23 43
-56 63 -72 l35 -31 -12 -54 c-6 -30 -18 -64 -25 -75 -14 -22 -64 -152 -64
-167 0 -6 14 -7 33 -3 62 14 302 97 318 111 8 8 27 14 41 14 31 0 121 36 168
67 19 13 40 23 47 23 6 0 34 14 61 31 28 17 66 32 86 34 48 5 359 166 366 190
4 14 122 85 141 85 22 0 153 93 221 157 31 29 61 53 67 53 6 0 19 7 29 15 119
104 168 145 175 145 5 0 27 19 51 43 59 60 106 97 121 97 17 0 306 300 299
311 -2 5 -37 18 -77 29 -214 61 -550 194 -820 323 -151 73 -156 76 -162 110
-12 65 -6 71 45 43 83 -45 169 -86 179 -86 5 0 16 -6 23 -13 16 -16 341 -147
364 -147 9 0 31 -9 48 -19 17 -10 47 -22 66 -26 19 -4 44 -13 55 -20 11 -7 48
-21 83 -30 34 -10 62 -21 62 -25 0 -8 66 -30 125 -41 22 -4 49 -10 60 -14 15
-4 24 1 35 19 8 13 41 52 73 85 32 34 60 68 61 77 1 9 21 37 43 62 22 26 48
62 57 80 9 18 23 35 31 38 7 3 18 18 23 32 5 15 27 50 48 77 68 89 135 205
249 430 150 295 278 626 335 870 11 44 31 123 45 175 32 120 80 409 102 610
20 192 23 707 3 755 -6 17 -13 75 -15 130 -3 108 -42 376 -57 386 -14 9 -28
70 -28 120 0 64 -103 434 -145 519 -7 14 -25 63 -40 110 -16 47 -54 140 -86
206 -32 67 -70 150 -84 185 -15 35 -42 89 -61 120 -19 31 -34 61 -34 65 0 5
-27 50 -60 99 -33 50 -80 120 -104 156 -24 36 -52 81 -61 100 -36 68 -243 337
-307 399 -27 25 -48 50 -48 57 0 6 -12 22 -27 35 -16 13 -53 55 -84 93 -73 91
-288 288 -430 392 -31 23 -63 48 -72 57 -29 29 -152 126 -160 126 -8 0 -137
88 -147 100 -12 15 -103 72 -190 119 -284 154 -571 286 -792 363 -48 17 -88
34 -88 38 0 5 -19 11 -42 15 -24 4 -95 22 -158 40 -310 91 -642 158 -870 176
-204 16 -637 18 -800 4z m-450 -784 c0 -11 -46 -41 -71 -46 -21 -4 -82 -44
-87 -57 -2 -4 -13 -8 -24 -8 -26 0 -194 -90 -254 -136 -26 -19 -64 -44 -86
-55 -21 -11 -38 -24 -38 -29 0 -6 -11 -15 -23 -19 -30 -12 -188 -160 -225
-211 -15 -21 -56 -76 -91 -122 -78 -102 -179 -305 -188 -377 -3 -29 -10 -54
-16 -58 -7 -4 -8 39 -4 133 6 130 9 143 39 204 18 36 48 87 66 115 17 27 32
56 32 63 0 16 78 120 127 169 19 18 61 53 94 77 32 24 57 45 54 48 -13 13 180
131 251 154 27 8 69 26 94 39 25 13 56 29 70 35 14 7 39 19 56 27 44 20 175
61 202 62 12 1 22 -3 22 -8z m-1162 -323 c-7 -13 -16 -25 -20 -28 -3 -3 -16
-32 -29 -65 -12 -33 -36 -91 -54 -130 -44 -92 -81 -206 -96 -291 -13 -75 -7
-247 11 -332 14 -62 9 -87 -10 -52 -52 96 -82 344 -56 470 8 41 21 91 28 110
22 58 100 200 107 195 4 -2 15 10 23 28 19 38 85 117 99 117 5 0 4 -10 -3 -22z
m1182 -110 c0 -7 -29 -32 -64 -55 -197 -129 -480 -405 -538 -525 -25 -50 -38
-60 -38 -28 0 25 36 121 48 129 5 3 23 26 38 51 61 94 106 150 139 170 19 12
44 35 56 51 11 16 26 29 32 29 6 0 32 20 57 44 25 25 77 61 115 82 39 20 79
43 90 50 24 17 65 18 65 2z m-487 -6 c3 -4 -22 -50 -55 -102 -81 -129 -113
-194 -152 -311 -19 -55 -37 -103 -40 -106 -3 -4 -6 -21 -6 -39 0 -43 -19 -132
-30 -139 -4 -3 -16 -2 -26 2 -15 6 -16 18 -11 122 9 175 43 271 151 426 72
104 153 174 169 147z m597 -129 c0 -14 -44 -53 -61 -53 -10 0 -32 -16 -51 -36
-18 -20 -43 -40 -56 -45 -12 -5 -25 -15 -28 -24 -3 -8 -41 -50 -84 -92 -42
-43 -94 -104 -114 -136 -21 -32 -45 -61 -54 -64 -9 -3 -27 -18 -39 -32 -29
-35 -34 -26 -18 36 36 140 218 327 420 431 39 21 85 29 85 15z m144 -61 c3 -5
-21 -24 -52 -42 -121 -72 -273 -185 -393 -292 -77 -69 -89 -77 -89 -57 0 18
41 70 50 64 5 -3 12 5 16 17 7 24 141 173 155 173 4 0 18 9 31 20 13 11 28 21
33 22 11 2 118 53 175 84 38 20 66 24 74 11z m160 -41 c3 -4 -25 -22 -62 -39
-37 -18 -62 -32 -55 -32 21 0 1 -40 -35 -70 -20 -16 -38 -28 -40 -25 -2 2 11
24 29 49 57 80 45 74 -185 -94 -99 -73 -146 -95 -146 -71 0 18 95 113 149 150
134 91 325 164 345 132z m226 -86 c0 -2 -17 -13 -37 -24 -21 -11 -63 -36 -93
-55 -30 -20 -70 -39 -89 -42 -68 -13 -309 -138 -320 -166 -4 -12 -120 -98
-132 -98 -5 0 -9 9 -9 19 0 20 95 111 116 111 16 0 134 86 159 115 27 31 153
94 245 121 67 21 160 32 160 19z m118 -37 c-3 -9 -145 -58 -170 -58 -24 0 -1
20 50 43 59 28 127 36 120 15z m1195 -36 c42 -6 90 -18 105 -26 15 -8 64 -27
110 -41 45 -13 101 -34 123 -46 121 -61 277 -180 364 -277 26 -29 53 -52 60
-52 17 0 85 -76 85 -95 0 -21 -20 -9 -95 55 -125 109 -361 248 -530 313 -200
77 -363 107 -585 107 -151 0 -353 -22 -375 -40 -6 -5 -36 -12 -66 -15 -30 -2
-72 -6 -93 -9 -57 -8 -191 -54 -219 -76 -29 -23 -71 -34 -94 -25 -16 6 -15 8
7 20 14 8 49 21 78 30 29 9 61 24 70 33 28 28 299 115 356 115 27 0 65 6 85
15 20 9 68 19 106 23 101 9 417 4 508 -9z m-848 -467 c51 -15 113 -42 143 -62
29 -19 59 -36 65 -37 22 -3 126 -87 162 -131 19 -24 42 -63 50 -87 8 -24 20
-53 27 -65 6 -13 9 -46 5 -84 -7 -81 -71 -212 -135 -279 -135 -140 -150 -168
-132 -250 12 -56 20 -69 86 -139 41 -43 71 -81 68 -83 -7 -7 88 -88 103 -88 7
0 27 -16 44 -35 18 -19 38 -35 45 -35 7 0 22 -20 33 -44 21 -41 21 -55 19
-354 l-3 -311 82 -26 c45 -15 87 -24 92 -21 5 3 11 2 13 -3 1 -6 22 -13 45
-17 l41 -6 6 78 c4 44 9 112 12 152 3 39 10 72 15 72 5 0 9 13 9 28 0 31 51
117 75 126 25 9 27 -13 6 -50 -20 -34 -41 -144 -27 -144 4 0 26 40 49 88 23
48 52 98 64 111 12 13 31 43 42 67 11 23 28 47 38 53 10 6 14 11 10 11 -19 0
113 104 168 132 58 29 63 30 173 25 l112 -4 63 -59 c34 -32 72 -74 85 -94 57
-88 91 -285 71 -405 -6 -38 -14 -74 -18 -80 -4 -5 -16 -46 -26 -90 -14 -57
-33 -99 -67 -152 -26 -40 -45 -73 -42 -73 10 0 -61 -92 -78 -101 -10 -5 -28
-29 -39 -52 -12 -23 -28 -47 -36 -52 -8 -6 -16 -23 -17 -38 -2 -16 -13 -37
-24 -47 -13 -13 -24 -43 -32 -92 -13 -82 -21 -100 -68 -175 -22 -36 -41 -55
-60 -59 -15 -4 -47 -16 -71 -26 -51 -23 -119 -20 -170 7 -45 23 -101 75 -101
93 0 8 -6 23 -14 31 -8 9 -18 31 -23 50 -5 19 -15 37 -22 39 -11 4 -12 -9 -7
-62 8 -66 -7 -194 -39 -336 -8 -36 -20 -119 -25 -185 -6 -66 -15 -129 -20
-140 -9 -21 -23 -124 -40 -288 -6 -57 -18 -114 -29 -135 -10 -20 -22 -53 -26
-72 -9 -43 -46 -120 -57 -120 -4 0 -8 -5 -8 -11 0 -10 -42 -66 -85 -115 -11
-12 -39 -44 -62 -70 -110 -128 -140 -161 -169 -189 -17 -16 -35 -37 -40 -46
-17 -31 -159 -189 -170 -189 -6 0 -35 -27 -64 -61 -29 -33 -55 -58 -57 -55 -7
6 46 97 63 111 20 16 144 237 144 257 0 28 -18 21 -36 -14 -9 -18 -20 -35 -24
-38 -15 -12 -130 -185 -130 -197 0 -7 -3 -13 -7 -13 -5 0 -16 -15 -26 -33 -32
-55 -171 -237 -182 -237 -5 0 -21 -20 -34 -45 -13 -25 -29 -45 -35 -45 -6 0
-24 -19 -41 -43 -16 -23 -37 -48 -47 -55 -10 -7 -18 -19 -18 -26 0 -15 -107
-126 -121 -126 -4 0 -33 -17 -63 -39 -31 -21 -69 -44 -86 -51 -16 -7 -27 -16
-24 -21 3 -5 -7 -9 -23 -9 -15 0 -41 -8 -58 -17 -25 -14 -61 -17 -216 -17
l-186 -1 -39 30 c-56 42 -132 124 -139 149 -14 50 -28 76 -41 76 -8 0 -14 -10
-14 -22 1 -33 36 -134 58 -166 41 -59 44 -56 -71 -49 -145 9 -196 34 -256 125
-25 36 -48 84 -52 106 -13 65 -11 144 4 149 9 3 12 41 12 148 l0 144 170 -3
c210 -3 243 -9 162 -28 -32 -8 -70 -23 -83 -33 -14 -11 -38 -22 -53 -26 -23
-5 -84 -65 -67 -65 8 0 107 39 146 58 59 28 283 22 444 -11 131 -28 161 -30
107 -7 -17 7 -36 18 -42 26 -6 8 -20 14 -29 14 -10 0 -20 4 -22 10 -6 16 -120
41 -216 47 -78 5 -92 8 -90 22 3 13 23 17 108 22 117 6 227 29 311 65 31 13
65 24 74 24 10 0 40 14 66 31 27 17 55 32 64 33 9 1 25 10 36 19 10 9 40 27
66 39 26 12 68 43 93 69 25 26 59 54 76 63 30 14 134 122 134 138 0 4 21 28
46 54 48 50 118 149 129 183 3 10 16 32 28 47 25 32 87 133 87 142 0 3 8 24
19 46 10 23 30 70 46 106 15 36 38 86 51 112 13 26 24 56 24 66 0 20 57 181
70 197 14 17 59 193 54 212 -5 19 5 85 30 198 10 45 16 118 16 202 0 72 5 144
10 158 l10 26 36 -37 c32 -35 34 -39 18 -51 -12 -9 -14 -16 -6 -25 5 -7 10
-29 10 -48 0 -19 5 -48 11 -63 6 -16 11 -51 11 -80 0 -37 3 -48 11 -40 12 12
26 96 35 214 8 99 -12 141 -99 205 -94 70 -114 76 -262 78 -138 3 -181 -6
-240 -50 -16 -12 -35 -20 -41 -17 -12 4 -79 -66 -70 -74 3 -3 24 4 48 15 34
16 56 19 106 15 71 -6 78 -18 31 -57 -19 -16 -32 -39 -36 -61 -7 -45 -68 -110
-100 -106 -14 1 -23 -5 -28 -18 -3 -12 -15 -21 -26 -21 -10 0 -19 -4 -19 -10
0 -5 -7 -10 -16 -10 -10 0 -14 -6 -10 -15 6 -18 -23 -34 -112 -64 -73 -25 -92
-26 -92 -6 0 8 -4 15 -10 15 -5 0 -10 -6 -10 -14 0 -8 -15 -17 -34 -20 -27 -5
-33 -10 -29 -25 3 -13 -2 -20 -19 -24 -36 -10 -138 -8 -138 2 0 5 -26 12 -57
16 -32 4 -65 9 -73 12 -8 3 -46 6 -85 5 -73 0 -116 13 -175 53 -19 13 -78 38
-130 55 -52 18 -96 36 -98 41 -2 5 -29 9 -60 9 -64 0 -137 -30 -187 -77 -41
-38 -87 -119 -83 -144 2 -18 8 -13 35 24 17 25 62 66 100 91 61 41 74 46 124
46 87 0 100 -16 101 -115 0 -44 4 -89 10 -101 13 -27 -18 -94 -49 -105 -21 -7
-23 -5 -23 21 0 16 -5 32 -11 36 -14 8 -159 -16 -159 -27 0 -5 -7 -9 -15 -9
-8 0 -15 -4 -15 -10 0 -5 -12 -10 -27 -10 -22 0 -25 -2 -13 -10 13 -9 12 -12
-4 -22 -37 -21 -131 -110 -173 -165 -14 -17 -20 -21 -16 -9 12 36 -60 63 -86
32 -8 -9 -9 -26 -3 -54 8 -35 7 -39 -8 -35 -12 3 -20 -2 -25 -16 -3 -12 -11
-21 -16 -21 -5 0 -9 -6 -9 -14 0 -10 -10 -14 -31 -14 -18 1 -37 -6 -43 -14
-16 -22 -102 -33 -109 -14 -6 16 -66 36 -108 36 -15 0 -30 7 -33 16 -10 25 -7
84 4 84 12 0 42 60 65 130 10 30 24 66 31 80 7 14 28 71 45 128 17 56 35 102
39 102 17 0 31 141 40 388 5 141 12 271 16 287 14 70 46 168 66 201 17 29 19
45 14 90 -7 58 -55 194 -88 250 -16 28 -19 49 -16 138 2 75 0 106 -9 106 -15
0 -33 -54 -33 -101 0 -22 -3 -39 -6 -39 -16 0 -140 98 -181 144 -27 28 -61 58
-76 66 -16 8 -39 26 -51 41 -27 31 -105 79 -132 79 -10 0 -28 7 -38 15 -33 25
-126 19 -180 -11 -25 -14 -46 -23 -46 -19 0 14 31 65 40 65 6 0 10 6 10 13 1
17 82 77 128 93 44 15 168 18 177 4 3 -5 15 -10 25 -10 10 0 20 -3 22 -7 3 -8
83 -48 83 -42 0 6 80 -44 86 -54 4 -5 12 -8 18 -6 16 6 -16 49 -35 49 -9 0
-43 20 -77 44 -96 68 -154 89 -232 84 -72 -4 -76 1 -54 59 6 15 19 70 30 121
11 51 24 101 29 110 19 35 39 88 44 112 8 49 98 248 128 285 25 30 35 35 56
30 30 -7 95 -56 135 -102 15 -17 49 -42 75 -54 26 -13 63 -33 82 -45 19 -13
63 -30 96 -40 l62 -17 63 39 c35 21 75 48 89 59 30 26 127 85 139 85 4 0 25
14 46 30 21 17 43 30 50 30 18 0 105 50 142 81 52 45 158 99 195 101 20 1 50
9 69 19 19 10 55 28 82 40 38 17 46 26 42 40 -7 22 13 26 21 4 4 -10 14 -13
33 -9 41 10 46 17 21 26 -12 5 -21 11 -18 14 3 2 59 9 124 14 76 7 126 16 142
26 13 9 53 17 89 20 35 2 72 9 81 14 11 7 74 9 177 6 134 -4 175 -9 250 -31z
m-2529 -20 c6 -14 -47 -91 -73 -108 -7 -4 -27 -38 -45 -75 -31 -64 -33 -72
-31 -175 1 -106 1 -108 -18 -91 -10 9 -19 25 -19 35 0 10 -4 21 -10 24 -17 11
-10 -58 10 -100 11 -22 20 -44 20 -50 0 -5 12 -32 25 -60 27 -54 25 -67 -4
-41 -18 16 -29 43 -63 151 -21 65 -10 249 18 310 29 64 83 133 127 165 48 34
56 35 63 15z m3720 -101 c116 -29 245 -88 364 -166 78 -50 123 -88 106 -88 -4
0 1 -12 12 -27 39 -57 34 -57 -28 1 -36 32 -80 68 -97 78 -18 11 -33 24 -33
29 0 5 -7 9 -15 9 -9 0 -40 15 -69 34 -29 18 -67 37 -85 41 -18 4 -35 13 -37
20 -3 7 -35 21 -72 30 -37 9 -92 23 -123 31 -30 8 -63 14 -73 14 -30 0 -8 -17
31 -25 21 -3 47 -12 58 -19 11 -7 43 -21 70 -32 52 -20 56 -21 79 -23 8 0 21
-7 28 -14 7 -7 51 -34 98 -61 47 -27 101 -57 120 -68 44 -25 163 -143 159
-157 -2 -6 -35 15 -74 46 -206 166 -414 264 -663 313 -152 30 -152 29 -152 40
0 13 39 17 176 19 102 1 138 -3 220 -25z m-3736 -159 c0 -85 -19 -103 -38 -36
-17 54 -15 88 6 100 30 18 32 13 32 -64z m3740 -118 c170 -67 265 -120 322
-179 36 -39 13 -35 -52 8 -102 68 -305 139 -483 169 -136 23 -137 23 -130 41
5 15 21 16 117 11 101 -5 121 -10 226 -50z m-409 -136 c70 -5 135 -14 145 -19
11 -6 41 -13 67 -15 27 -3 54 -10 60 -15 7 -5 33 -16 59 -26 26 -10 50 -22 53
-27 7 -11 -30 -4 -160 28 -94 24 -111 25 -307 21 -161 -3 -208 -1 -208 8 0 17
16 26 65 41 50 14 70 14 226 4z m174 -196 c136 -15 175 -23 175 -34 0 -4 26
-12 58 -19 32 -7 67 -19 78 -27 19 -14 19 -14 -2 -15 -12 0 -63 10 -115 21
-78 18 -137 22 -351 26 -142 3 -258 9 -258 14 0 15 38 29 107 38 102 13 165
12 308 -4z m-3545 -752 c33 -9 60 -20 60 -25 0 -4 8 -8 18 -8 21 0 42 -18 42
-37 0 -7 -8 -13 -17 -13 -15 0 -16 -2 -3 -10 8 -5 12 -10 10 -12 -3 -2 -30
-16 -61 -31 -31 -16 -67 -39 -80 -53 l-22 -24 32 0 c32 0 33 -1 19 -21 -17
-26 -96 -72 -109 -63 -18 11 -80 153 -81 184 -2 48 73 129 120 130 7 0 39 -7
72 -17z m270 -168 c11 -13 6 -15 -33 -15 -31 0 -47 5 -51 15 -4 12 3 15 33 15
22 0 44 -6 51 -15z m59 -96 c117 -18 278 -129 297 -204 4 -15 2 -36 -4 -48
-13 -26 -70 -213 -84 -277 -6 -25 -12 -89 -15 -142 l-4 -98 -55 -36 c-82 -55
-143 -74 -230 -74 -44 0 -89 6 -107 14 -18 8 -50 20 -72 27 -133 41 -233 168
-254 322 -6 43 -11 99 -11 125 0 46 22 126 41 148 5 7 20 33 34 59 29 58 94
112 190 159 59 29 81 34 140 35 39 0 99 -4 134 -10z m4158 -231 c-2 -29 -3 -6
-3 52 0 58 1 81 3 53 2 -29 2 -77 0 -105z m-10 -95 c-3 -10 -5 -4 -5 12 0 17
2 24 5 18 2 -7 2 -21 0 -30z m-10 -45 c-3 -8 -6 -5 -6 6 -1 11 2 17 5 13 3 -3
4 -12 1 -19z m-17 -63 c-7 -20 -14 -35 -16 -33 -2 2 2 21 8 41 6 20 13 35 16
33 2 -3 -1 -21 -8 -41z m-44 -102 c-13 -26 -32 -57 -40 -68 -9 -11 1 12 21 52
21 39 39 70 41 68 2 -2 -8 -25 -22 -52z m-1706 -228 c0 -29 -36 -53 -53 -36
-8 8 -6 11 6 11 11 0 17 8 17 25 0 16 6 25 15 25 9 0 15 -9 15 -25z m-2651
-160 c6 -33 -79 -3 -99 36 -9 16 -5 16 44 -4 29 -12 54 -26 55 -32z m2871 -47
c0 -29 -4 -48 -8 -41 -7 12 -4 93 4 93 2 0 4 -24 4 -52z m-2680 7 c-34 -19
-80 -19 -80 0 0 11 12 15 53 15 50 -1 51 -1 27 -15z m190 -22 c0 -5 -5 -25
-11 -45 -10 -38 -24 -49 -31 -26 -6 18 -58 -6 -58 -26 0 -19 -32 -25 -45 -8
-8 10 -20 10 -62 1 -29 -7 -50 -16 -47 -21 3 -4 -26 -8 -65 -8 -77 0 -83 -8
-33 -45 23 -16 40 -19 112 -17 102 3 186 30 250 79 l45 34 3 -56 c2 -31 -1
-62 -6 -68 -5 -7 -14 -35 -20 -63 -11 -51 -76 -204 -91 -214 -14 -9 -41 -68
-62 -135 -11 -36 -24 -65 -29 -65 -6 0 -10 -19 -11 -42 0 -37 -2 -40 -12 -25
-7 9 -72 78 -145 153 -72 74 -141 153 -152 174 -29 57 -28 218 1 318 13 40 27
72 35 72 7 0 25 -11 41 -24 35 -30 97 -49 143 -44 34 3 34 4 -23 21 -32 10
-72 31 -90 48 -23 22 -26 29 -12 24 82 -28 219 -30 265 -5 34 19 110 27 110
13z m1157 -258 c85 -42 175 -60 308 -60 66 1 134 6 150 12 17 6 66 21 110 34
44 12 87 28 95 35 22 19 131 66 138 60 11 -11 -198 -196 -221 -196 -11 0 -47
-26 -90 -65 -24 -21 -127 -87 -127 -81 0 3 -26 -10 -57 -28 -32 -19 -80 -43
-108 -54 -123 -51 -204 -80 -255 -92 -30 -7 -58 -17 -61 -22 -5 -8 -79 -26
-224 -54 -47 -9 -116 -44 -163 -83 l-43 -35 -127 -1 c-94 -2 -148 -8 -206 -24
-102 -27 -106 -27 -106 7 0 26 9 34 82 73 46 24 99 59 119 77 20 17 42 32 48
32 7 0 11 -26 11 -75 0 -57 3 -75 14 -75 31 0 36 100 9 149 l-18 30 35 36 c18
19 39 35 44 35 6 0 45 31 87 68 58 53 87 71 125 81 27 6 61 16 77 21 16 5 27
5 27 -1 0 -5 12 -9 27 -9 31 0 86 55 123 123 22 43 23 51 13 99 -6 29 -14 61
-18 70 -5 13 12 6 62 -22 37 -22 91 -51 120 -65z m1080 6 c56 -53 94 -209 59
-243 -9 -9 -16 -19 -16 -22 0 -14 -46 -76 -56 -76 -6 0 -19 -9 -29 -20 -31
-35 -50 -25 -45 23 1 10 -10 38 -24 64 -16 28 -26 61 -26 87 0 50 25 152 46
184 18 28 62 29 91 3z m-177 -130 l0 -50 -59 20 c-38 13 -61 27 -64 38 -3 13
0 17 12 14 9 -2 25 3 36 11 11 9 32 16 48 16 26 0 27 -2 27 -49z m1064 -72 c9
-46 7 -79 -4 -79 -5 0 -10 18 -10 39 0 22 -3 46 -6 55 -3 9 -2 16 4 16 5 0 12
-14 16 -31z m-1115 -5 c33 -20 81 -96 81 -129 0 -13 5 -27 10 -30 6 -3 10 -32
10 -64 0 -54 -3 -60 -42 -102 -27 -28 -59 -50 -85 -59 -24 -7 -43 -17 -43 -22
0 -4 -6 -8 -13 -8 -14 0 -37 40 -37 66 0 8 -8 26 -17 40 -15 23 -15 35 -4 117
15 113 28 156 54 185 24 26 49 28 86 6z m1138 -96 c-2 -24 -4 -7 -4 37 0 44 2
63 4 43 2 -21 2 -57 0 -80z m-1322 -37 c-9 -31 -17 -59 -18 -63 -4 -15 -82 49
-82 67 0 12 21 34 55 58 53 37 55 37 58 16 2 -12 -4 -47 -13 -78z m-58 -90
c34 -35 72 -124 73 -168 0 -12 5 -25 10 -28 21 -13 10 -72 -21 -114 -17 -24
-33 -41 -36 -38 -6 7 -92 -22 -118 -40 -11 -7 -33 -13 -50 -13 -28 0 -31 4
-44 53 -8 28 -16 87 -19 129 -3 74 -1 82 37 163 42 89 61 106 109 97 14 -3 41
-21 59 -41z m1331 10 c2 20 8 26 21 22 33 -8 51 -73 61 -221 5 -78 13 -149 18
-159 6 -10 20 -70 31 -133 12 -63 29 -142 38 -175 8 -33 17 -82 20 -109 2 -27
11 -62 19 -77 8 -15 14 -35 14 -43 0 -8 11 -36 25 -63 13 -26 27 -64 30 -83 3
-19 22 -67 41 -105 19 -39 39 -96 46 -127 11 -54 10 -61 -21 -145 -32 -84
-100 -221 -126 -253 -7 -8 -29 -49 -51 -90 -39 -78 -129 -204 -195 -274 -22
-23 -38 -45 -38 -49 0 -5 -16 -25 -38 -44 -21 -20 -37 -40 -35 -45 3 -11 -193
-209 -205 -207 -4 1 -11 0 -15 -1 -5 -1 -11 -3 -15 -4 -19 -4 -63 -40 -63 -51
0 -17 -75 -46 -119 -47 -28 0 -45 8 -77 38 -51 49 -60 65 -69 134 -4 30 -12
60 -17 67 -5 6 -8 26 -6 43 l3 31 57 -41 c32 -22 76 -66 98 -97 36 -51 40 -54
40 -29 0 48 -27 93 -97 163 -51 51 -81 73 -121 87 -29 10 -78 35 -109 56 -62
43 -142 134 -143 164 0 22 -58 116 -71 116 -5 0 -9 7 -9 15 0 8 6 15 13 15 14
0 261 249 315 318 18 23 36 41 40 41 30 -5 51 3 46 16 -4 9 0 15 10 15 8 0 22
12 30 28 8 15 23 36 35 46 11 10 18 22 16 27 -9 14 16 21 31 8 12 -10 17 -8
29 7 29 37 36 52 24 60 -7 4 2 20 25 43 19 20 36 41 37 46 4 19 43 65 55 65 7
0 22 14 34 30 19 27 26 30 55 24 30 -5 35 -3 49 25 9 17 19 52 23 78 3 27 19
69 35 94 15 25 28 59 28 74 0 36 21 105 32 105 10 0 10 2 -1 -38 -9 -29 -8
-32 13 -32 19 0 26 12 49 83 31 94 35 157 12 157 -10 0 -15 11 -15 35 0 25 4
35 16 35 14 0 16 14 13 108 -2 59 -2 143 0 187 3 75 3 78 14 45 11 -34 11 -34
15 -9z m-1551 -55 c-3 -8 -9 -31 -13 -51 -7 -39 -26 -54 -47 -37 -6 6 -23 12
-37 14 -32 4 -38 34 -10 43 12 4 31 16 41 26 23 23 74 27 66 5z m619 -132 c6
-23 -25 -94 -84 -194 -29 -50 -44 -66 -64 -68 -33 -4 -58 29 -58 75 0 20 -8
41 -20 53 -11 11 -20 26 -20 33 0 19 21 37 43 37 22 0 113 58 147 95 23 25 25
25 38 8 7 -10 15 -27 18 -39z m-706 -22 c44 -49 80 -143 80 -206 0 -67 -33
-121 -72 -116 -2 0 -30 -9 -63 -20 -33 -12 -88 -24 -121 -27 -71 -7 -63 -16
-88 109 -20 97 -6 170 45 240 58 80 158 89 219 20z m-1485 7 c5 -5 42 -9 81
-9 l73 0 -10 -32 c-18 -64 -11 -101 25 -141 29 -31 40 -37 76 -37 37 0 47 -5
81 -42 21 -24 38 -47 39 -53 0 -5 7 -23 15 -38 8 -15 22 -58 31 -95 9 -37 21
-70 26 -73 6 -4 2 -16 -8 -28 -11 -12 -21 -31 -24 -44 -7 -27 8 -157 20 -171
4 -6 11 -27 15 -46 5 -29 2 -39 -19 -59 -13 -13 -29 -20 -34 -17 -5 3 -17 36
-26 73 -28 112 -46 166 -72 205 -13 21 -24 42 -24 47 0 33 -221 434 -297 538
-13 17 -23 34 -23 38 0 8 42 -4 55 -16z m1205 -34 c0 -3 -7 -22 -15 -42 -8
-19 -15 -46 -15 -59 0 -29 -13 -31 -40 -4 -20 20 -44 69 -37 76 18 18 107 42
107 29z m-143 -89 c23 -17 43 -36 43 -42 0 -5 13 -23 29 -38 30 -29 47 -77 55
-164 4 -46 2 -54 -17 -67 -29 -19 -183 -45 -267 -45 -64 0 -68 1 -78 28 -66
168 -24 328 91 347 23 4 48 11 56 15 19 10 37 3 88 -34z m869 -53 c4 -16 11
-33 16 -40 15 -19 -10 -161 -39 -225 l-27 -58 -48 0 c-28 0 -48 5 -48 11 0 6
-6 9 -14 6 -33 -13 -69 35 -116 151 -24 61 -21 82 12 82 13 0 52 9 88 20 36
11 75 20 87 20 13 0 32 12 45 30 27 37 36 38 44 3z m-1250 -74 c72 -62 73 -65
74 -111 0 -26 7 -66 16 -88 9 -23 14 -43 11 -46 -13 -14 -130 -33 -198 -34
-75 0 -77 0 -84 27 -3 15 -12 31 -18 35 -6 3 -12 20 -13 36 -1 16 -9 43 -18
60 -26 51 -21 97 17 139 36 39 91 63 121 53 10 -3 51 -35 92 -71z m78 49 c3
-13 1 -27 -4 -32 -13 -13 -40 11 -40 35 0 27 36 24 44 -3z m866 -150 c16 -46
26 -188 13 -188 -10 0 -29 -65 -25 -83 3 -10 -27 -68 -46 -89 -17 -20 -96 -25
-107 -8 -3 6 -13 10 -21 10 -26 0 -122 71 -133 98 -12 30 -41 156 -37 159 2 2
36 9 77 17 158 30 192 43 224 80 17 20 33 36 37 36 3 0 11 -15 18 -32z m-380
-205 c16 -52 9 -114 -18 -173 -28 -61 -64 -95 -113 -108 -35 -9 -48 -7 -92 13
-29 13 -62 32 -74 42 -24 20 -57 111 -67 185 l-7 47 43 4 c170 20 211 28 239
47 16 12 29 19 29 15 0 -3 8 -2 18 4 13 8 18 5 23 -12 4 -12 12 -41 19 -64z
m528 14 l34 -19 -54 -52 c-118 -112 -163 -131 -102 -40 18 26 28 57 31 95 l6
57 26 -12 c14 -6 41 -20 59 -29z m-954 -13 c9 -8 16 -27 16 -40 0 -14 7 -56
16 -94 15 -66 14 -70 -6 -109 -11 -23 -38 -52 -60 -66 -40 -25 -90 -34 -90
-15 0 6 -7 10 -15 10 -8 0 -15 6 -15 13 0 8 -11 24 -25 37 -14 13 -28 39 -31
59 -4 20 -10 41 -15 47 -5 6 -11 36 -15 67 l-7 57 44 0 c44 0 124 20 157 39
23 14 28 13 46 -5z m-282 -94 c4 -36 12 -82 19 -103 11 -32 10 -43 -4 -72 -9
-19 -21 -35 -26 -35 -16 0 -61 180 -61 241 0 39 1 40 33 37 32 -3 32 -4 39
-68z m1307 -9 c9 -6 10 -11 2 -15 -6 -4 -11 -23 -11 -42 0 -24 -5 -34 -15 -34
-8 0 -15 -8 -16 -17 0 -10 -3 -13 -5 -6 -4 9 -14 8 -40 -4 -19 -9 -34 -20 -34
-24 0 -4 -33 -32 -72 -62 -63 -48 -107 -70 -278 -141 -8 -3 -5 -4 8 -2 16 3
22 -1 22 -15 0 -12 -7 -19 -19 -19 -31 0 -51 11 -44 24 4 6 -6 3 -21 -8 -16
-10 -55 -21 -88 -24 l-60 -5 4 29 c3 26 8 29 63 42 106 24 257 75 274 94 9 9
39 27 66 39 28 12 52 25 55 28 3 4 22 17 43 30 20 12 37 28 37 34 0 11 98 106
110 106 3 1 11 -3 19 -8z m-474 -75 c27 -20 65 -39 82 -42 18 -3 33 -10 33
-15 0 -12 -55 -39 -80 -39 -11 0 -40 -10 -63 -22 -23 -11 -73 -26 -111 -33
l-69 -12 24 21 c36 31 75 94 90 148 15 52 12 53 94 -6z m-435 -101 c35 -36
103 -65 154 -65 27 -1 29 -2 12 -12 -23 -13 -229 -30 -274 -21 l-33 5 24 27
c13 14 34 43 46 64 13 20 26 37 30 37 4 0 22 -16 41 -35z m-277 -84 c19 -11
50 -21 68 -22 76 -2 -16 -17 -112 -18 l-96 -1 4 25 c3 13 13 27 23 30 10 3 23
19 30 36 l13 30 17 -29 c10 -16 34 -39 53 -51z m2912 12 c41 -36 77 -77 92
-108 14 -27 34 -61 46 -76 18 -25 19 -37 13 -136 -8 -125 -24 -251 -36 -274
-5 -9 -12 -50 -15 -90 -4 -41 -15 -93 -25 -116 -10 -23 -26 -77 -34 -120 -30
-144 -39 -178 -50 -192 -11 -14 -12 -18 -14 -63 -1 -15 -8 -33 -16 -41 -14
-13 -36 -80 -41 -122 -1 -12 -9 -41 -18 -65 -8 -25 -32 -99 -52 -165 -20 -66
-43 -127 -50 -135 -16 -17 -105 -274 -105 -301 0 -41 -23 -23 -126 99 -137
161 -234 262 -250 262 -7 0 -22 14 -34 30 -12 17 -66 62 -121 101 -77 55 -97
74 -89 84 6 7 40 28 75 45 36 18 65 37 65 42 0 5 5 6 10 3 6 -3 14 5 19 18 5
14 20 27 33 30 23 6 201 182 285 282 23 28 74 97 114 155 39 58 74 107 78 110
3 3 19 30 34 60 16 30 51 97 77 148 27 51 63 136 80 190 17 53 36 102 41 108
6 7 8 46 5 92 -6 102 -8 106 -29 112 -10 3 -27 24 -37 48 -27 59 -7 55 75 -15z
m250 -73 c22 -15 61 -50 86 -76 73 -77 189 -175 189 -161 0 4 11 -4 24 -16 13
-12 31 -27 39 -34 9 -7 19 -37 22 -68 4 -30 11 -58 16 -61 5 -3 9 -18 9 -33 0
-16 7 -47 15 -70 8 -24 19 -75 25 -114 5 -40 16 -101 24 -137 20 -86 31 -231
16 -208 -6 9 -15 43 -21 75 -6 32 -14 63 -19 68 -13 16 -47 140 -81 289 -16
77 -36 151 -44 165 -7 14 -43 51 -81 81 -79 65 -334 313 -334 327 0 18 76 0
115 -27z m-3375 15 c0 -9 16 -25 35 -36 35 -21 46 -39 23 -39 -9 0 -9 -3 -1
-11 15 -15 44 -4 37 14 -3 9 3 17 18 21 42 11 58 7 58 -14 0 -11 -7 -20 -15
-20 -8 0 -19 -9 -25 -20 -6 -12 -21 -20 -36 -20 -43 0 -114 22 -114 35 0 7 -7
15 -15 19 -21 8 -19 62 3 75 24 14 32 13 32 -4z m698 -72 c-2 -12 -18 -20 -53
-26 -27 -5 -54 -15 -58 -23 -11 -20 -41 -17 -62 6 -18 20 -18 21 13 32 18 7
32 16 32 20 0 4 30 8 66 8 57 0 65 -2 62 -17z m1322 -66 c0 -2 -12 -14 -27
-28 l-28 -24 24 28 c23 25 31 32 31 24z m-1637 -114 c-13 -2 -35 -2 -50 0 -16
2 -5 4 22 4 28 0 40 -2 28 -4z m1497 -805 c0 -81 16 -168 30 -168 5 0 23 -25
40 -55 17 -30 44 -64 60 -75 31 -22 33 -43 7 -62 -15 -12 -38 -51 -94 -161
-13 -26 -22 -56 -18 -66 3 -10 -1 -24 -9 -30 -9 -7 -18 -39 -22 -72 -4 -32
-11 -59 -15 -59 -5 0 -9 3 -10 8 0 4 -2 18 -3 32 -2 14 -8 75 -15 135 -6 61
-15 130 -21 155 -10 51 -7 350 5 452 l8 66 28 -10 c29 -10 29 -11 29 -90z m99
-775 c6 -23 22 -55 34 -70 55 -68 59 -79 51 -166 -3 -45 -13 -100 -20 -122 -8
-22 -17 -65 -20 -95 -10 -85 -20 -92 -38 -30 -9 29 -16 62 -16 71 0 10 -16 62
-35 115 -34 93 -44 157 -27 168 5 3 12 46 15 97 4 50 10 95 13 101 9 14 30
-20 43 -69z"/>
<path d="M4750 7430 c-8 -6 -31 -9 -50 -8 -19 2 -35 -1 -35 -6 0 -5 58 -10
129 -12 139 -3 246 -23 308 -57 61 -33 53 -13 -9 26 -32 19 -86 42 -119 51
-69 18 -201 21 -224 6z"/>
<path d="M4589 7275 c-122 -44 -299 -147 -299 -172 0 -24 31 -13 129 41 148
84 223 106 349 106 84 -1 240 -52 315 -104 29 -20 63 -43 77 -53 14 -9 42 -30
63 -46 37 -28 47 -24 27 13 -23 42 -217 174 -272 184 -21 4 -38 11 -38 16 0
30 -279 42 -351 15z"/>
<path d="M4589 7109 c-26 -5 -73 -25 -105 -44 -32 -19 -63 -35 -68 -35 -35 0
-224 -162 -283 -243 -20 -27 -66 -72 -103 -102 -97 -77 -135 -113 -127 -121
13 -13 65 18 117 71 29 30 57 52 61 49 4 -2 27 18 51 46 24 27 48 50 54 50 5
0 26 16 45 36 74 78 269 214 306 214 11 0 35 8 54 17 40 20 212 23 294 4 68
-16 156 -51 150 -61 -6 -10 57 -50 79 -50 40 0 -8 45 -94 89 -25 13 -53 30
-63 39 -9 8 -30 17 -47 18 -16 2 -48 10 -72 19 -47 16 -174 18 -249 4z"/>
<path d="M4045 6982 c-16 -10 -58 -35 -93 -56 -34 -20 -72 -38 -85 -38 -30 -2
-77 -35 -87 -64 -5 -13 -21 -26 -35 -30 -14 -3 -25 -10 -25 -14 0 -4 -16 -11
-36 -15 -20 -3 -43 -13 -51 -20 -32 -33 -183 -50 -183 -21 0 18 -33 25 -150
31 -52 3 -113 9 -135 15 -50 12 -95 13 -95 1 0 -5 22 -12 50 -16 27 -4 52 -11
55 -16 12 -18 168 -59 268 -69 100 -10 108 -9 184 15 44 14 91 33 104 44 34
26 159 111 165 111 7 0 119 87 157 124 42 39 39 46 -8 18z"/>
<path d="M3536 6904 c-5 -13 -15 -15 -44 -11 -20 3 -57 2 -82 -2 -44 -7 -44
-7 -21 -20 27 -15 149 -10 160 6 3 6 26 17 51 26 l45 15 -51 1 c-39 1 -53 -3
-58 -15z"/>
<path d="M4663 6886 c-124 -30 -236 -109 -405 -288 -207 -217 -242 -252 -298
-295 -76 -59 -131 -83 -206 -90 l-64 -6 0 30 c0 16 7 52 15 79 18 60 18 64 1
64 -19 0 -59 -113 -58 -166 0 -24 9 -62 20 -83 12 -22 18 -42 15 -45 -4 -4 9
-22 27 -41 29 -30 41 -35 79 -35 26 0 63 5 85 11 53 15 65 1 37 -45 -13 -20
-20 -40 -16 -46 3 -5 2 -10 -4 -10 -35 0 -43 -231 -10 -337 11 -38 24 -81 29
-98 5 -16 12 -55 14 -85 10 -104 118 -276 211 -335 73 -46 156 -95 161 -95 3
0 29 -11 57 -24 115 -54 312 -37 467 41 41 21 78 39 82 39 5 1 12 2 17 3 13 2
91 80 91 91 0 17 -29 11 -91 -16 -33 -15 -59 -33 -59 -41 0 -7 -11 -19 -25
-25 -14 -6 -25 -15 -25 -20 0 -4 -11 -8 -25 -8 -13 0 -42 -6 -62 -14 -79 -30
-207 -30 -183 0 9 9 6 15 -10 24 -29 16 -149 17 -177 2 -22 -12 -40 -8 -88 21
-59 35 -67 45 -56 64 6 10 11 13 11 7 0 -13 113 -50 175 -58 57 -7 244 9 280
24 17 7 34 12 38 11 13 -3 111 56 132 79 10 11 26 20 35 20 20 0 120 97 140
136 23 43 80 127 80 118 0 -5 5 -2 10 6 14 21 12 63 -2 80 -11 12 -10 12 2 3
13 -10 18 -8 28 8 8 12 23 19 41 19 16 0 36 7 45 15 8 8 21 15 28 15 8 0 50
22 94 50 124 75 341 121 409 86 34 -18 55 -20 55 -7 0 34 -97 51 -239 44
l-123 -6 11 21 c13 25 59 58 67 49 3 -3 14 3 24 13 11 11 36 22 57 25 21 4 47
10 58 15 15 7 9 9 -25 9 -26 1 -50 -3 -55 -8 -6 -5 -36 -21 -68 -35 l-58 -25
7 59 c5 50 4 60 -9 60 -15 0 -26 -28 -27 -70 0 -14 -9 -43 -20 -65 -22 -46
-25 -64 -8 -47 18 18 35 14 41 -9 5 -17 11 -19 44 -14 21 3 0 -6 -47 -20 -47
-15 -96 -37 -110 -49 -36 -34 -78 -58 -90 -54 -7 2 2 21 20 43 18 22 46 67 63
100 26 51 31 70 30 130 -1 68 -15 125 -30 125 -5 0 -8 -39 -8 -87 -1 -87 -14
-156 -38 -193 -15 -26 -23 -25 -30 1 -5 20 -7 20 -22 5 -22 -21 -28 -20 -20 4
7 22 -10 28 -19 8 -3 -7 -4 -4 -1 8 15 62 -33 303 -71 363 -11 16 -13 26 -5
34 12 12 3 33 -37 86 -14 19 -27 29 -31 22 -4 -6 -17 -1 -35 14 -17 14 -42 25
-58 25 -21 0 -31 6 -35 20 -4 15 -14 20 -42 21 -23 1 -28 3 -13 6 18 4 21 9
16 31 -3 15 -16 35 -28 45 -11 10 -33 30 -48 43 -28 24 -68 33 -68 14 0 -5 -9
-10 -20 -10 -11 0 -20 -4 -20 -10 0 -14 -32 -12 -53 4 -20 16 -16 20 27 30 23
6 27 9 15 17 -7 5 -28 9 -46 9 -75 0 -33 43 64 65 125 28 174 29 253 1 40 -14
76 -29 79 -33 3 -4 31 -25 61 -45 63 -43 160 -132 160 -148 0 -5 7 -10 15 -10
11 0 15 10 14 38 -1 49 -12 84 -24 80 -5 -2 -17 24 -25 57 -8 34 -26 75 -38
93 -13 18 -22 38 -19 45 6 17 -40 85 -77 111 l-28 21 -15 -22 -15 -23 -53 48
c-62 57 -103 78 -176 92 -63 12 -80 12 -146 -4z m-118 -499 c30 -23 -1 -31
-62 -17 -35 9 -49 16 -41 22 20 12 82 9 103 -5z m309 -65 c95 -33 243 -232
272 -367 7 -33 17 -80 24 -104 11 -44 0 -141 -19 -165 -4 -6 -14 -29 -21 -51
-12 -39 -36 -75 -50 -75 -4 0 0 28 8 63 9 34 16 100 16 147 -1 74 -6 97 -37
178 -47 118 -74 157 -189 266 -93 89 -126 110 -152 100 -17 -6 -30 11 -20 27
8 14 102 3 168 -19z m-226 -56 c69 -15 189 -87 217 -130 9 -13 24 -26 33 -28
10 -3 36 -37 57 -77 22 -40 48 -86 58 -104 16 -28 18 -48 12 -167 -3 -74 -10
-139 -15 -144 -6 -6 -10 -23 -10 -38 0 -48 -33 -98 -127 -193 -97 -99 -125
-116 -236 -144 -100 -26 -316 -16 -390 17 -77 34 -145 90 -182 148 -19 30 -39
54 -44 54 -11 0 -38 73 -46 125 -4 22 -9 47 -12 55 -3 8 -5 67 -4 130 2 104 5
121 32 180 17 36 45 81 63 100 18 19 43 48 55 64 12 17 29 31 38 32 15 3 46
27 91 72 12 13 29 21 37 18 7 -2 15 0 17 6 12 36 231 51 356 24z m950 -523
c-10 -2 -26 -2 -35 0 -10 3 -2 5 17 5 19 0 27 -2 18 -5z m-554 -341 c-17 -36
-117 -140 -199 -208 -61 -50 -211 -89 -330 -86 -119 3 -195 11 -195 22 0 5 46
9 103 10 62 0 121 6 151 15 27 8 59 15 72 15 60 0 344 183 337 217 -1 6 15 30
35 54 34 40 37 41 40 20 2 -12 -4 -39 -14 -59z"/>
<path d="M4488 6174 c-3 -2 -42 -4 -89 -5 -70 0 -90 -5 -119 -23 -19 -13 -46
-26 -58 -30 -51 -17 -143 -125 -174 -205 -5 -14 -12 -81 -15 -149 -5 -119 -5
-124 20 -160 14 -20 31 -49 38 -64 7 -16 16 -28 21 -28 4 0 8 -7 8 -15 0 -9
20 -28 45 -43 25 -15 45 -32 45 -38 0 -26 103 -58 200 -62 128 -5 180 14 278
104 39 37 72 72 72 79 0 7 14 39 30 71 25 49 32 75 37 152 5 82 4 98 -14 130
-11 20 -26 53 -32 72 -14 46 -101 130 -171 167 -60 32 -116 54 -122 47z m47
-61 c45 -11 105 -40 105 -51 0 -4 25 -32 55 -62 70 -71 89 -128 82 -250 -4
-60 -12 -97 -27 -127 -21 -41 -106 -145 -125 -153 -5 -2 -17 -13 -25 -23 -14
-17 -36 -22 -108 -26 -15 -1 -21 -5 -16 -12 12 -19 -159 -6 -190 14 -14 10
-29 18 -33 18 -13 2 -58 36 -91 70 -20 20 -37 53 -47 88 -8 31 -22 69 -30 84
-27 51 -20 115 24 236 18 49 152 194 173 187 7 -3 29 1 48 9 38 15 139 14 205
-2z"/>
<path d="M4294 5971 c-21 -15 -49 -39 -61 -52 -55 -60 -69 -170 -33 -252 22
-49 85 -111 137 -133 36 -15 133 -19 133 -5 0 5 10 11 23 15 12 3 44 19 70 36
36 23 54 43 72 83 29 60 33 152 11 196 -16 30 -85 103 -101 108 -5 1 -28 9
-50 17 -22 8 -67 15 -101 16 -52 0 -67 -4 -100 -29z m205 -35 c15 -8 41 -32
56 -53 16 -21 34 -41 39 -45 6 -4 11 -35 11 -70 0 -52 -4 -68 -22 -87 -12 -13
-20 -27 -18 -31 6 -10 -33 -44 -74 -65 -27 -13 -48 -16 -94 -11 -73 7 -116 33
-146 86 -33 59 -27 159 12 219 15 22 31 40 35 39 4 0 14 2 22 6 19 8 97 23
128 25 13 1 36 -5 51 -13z"/>
<path d="M4335 5834 c-31 -34 -33 -95 -5 -141 37 -61 118 -57 163 8 37 53 34
78 -11 122 -32 31 -45 37 -80 37 -34 0 -48 -6 -67 -26z m123 -26 c17 -17 15
-83 -2 -97 -8 -7 -32 -11 -52 -9 -33 3 -39 7 -46 36 -10 37 1 58 37 72 29 12
49 12 63 -2z"/>
<path d="M5420 6868 c0 -7 9 -24 20 -38 16 -22 20 -23 25 -8 8 20 1 34 -26 48
-14 8 -19 7 -19 -2z"/>
<path d="M5374 6783 c3 -10 10 -39 17 -65 6 -27 15 -48 20 -48 14 0 11 57 -5
95 -15 35 -42 50 -32 18z"/>
<path d="M3545 6330 c-5 -8 -11 -66 -13 -129 -5 -123 7 -183 39 -214 10 -10
19 -22 19 -27 0 -19 88 -43 135 -36 54 9 60 26 8 26 -48 1 -73 15 -117 67 -39
44 -45 63 -21 63 13 0 11 8 -7 43 -17 31 -24 65 -28 132 -4 64 -8 86 -15 75z"/>
<path d="M6833 6082 c-29 -10 -58 -23 -65 -30 -6 -6 -16 -12 -21 -12 -20 0
-155 -153 -181 -205 -16 -30 -39 -67 -52 -82 -29 -33 -62 -117 -75 -190 -15
-82 1 -126 62 -170 28 -20 55 -47 60 -60 13 -34 11 -77 -3 -91 -7 -7 -9 -12
-4 -12 15 0 -37 -62 -60 -70 -16 -6 -27 -22 -34 -50 -22 -80 11 -130 85 -130
43 0 69 12 112 53 39 37 33 56 -8 26 -23 -16 -33 -18 -44 -9 -8 7 -27 9 -50 4
-48 -9 -64 11 -30 38 13 10 40 41 60 68 20 28 43 50 51 50 10 0 14 12 14 39 0
24 8 48 21 65 11 15 18 33 15 41 -6 17 -36 21 -36 5 0 -5 -6 -10 -12 -10 -15
1 -68 74 -68 95 0 8 -6 18 -12 22 -7 4 -19 18 -25 30 -11 19 -10 24 9 38 25
17 113 20 152 6 13 -6 36 -27 50 -47 21 -32 23 -39 10 -51 -19 -19 -18 -26 6
-48 15 -14 20 -31 20 -72 0 -56 15 -71 26 -27 11 44 -5 183 -24 212 -10 15
-23 36 -28 47 -11 21 -107 73 -135 74 -21 1 -41 47 -33 75 3 11 13 29 22 39 8
9 12 17 9 17 -3 0 1 17 9 37 15 36 61 81 77 75 4 -1 16 18 27 42 19 45 39 59
118 85 29 9 38 7 62 -10 18 -14 26 -27 23 -40 -3 -10 2 -34 11 -53 9 -19 16
-41 16 -49 0 -9 5 -19 10 -22 6 -3 10 -1 10 4 0 6 6 11 14 11 30 0 27 -223 -4
-340 -13 -46 -12 -50 3 -50 16 0 52 76 68 142 6 27 9 92 7 150 -4 85 -8 110
-28 141 l-23 38 22 6 c11 3 21 10 21 15 0 6 11 7 26 4 25 -7 26 -5 20 21 -7
28 -55 78 -111 114 -37 23 -92 24 -162 1z m189 -69 c36 -35 38 -56 2 -43 -33
13 -37 13 -29 -2 4 -7 -2 -2 -14 12 l-20 25 22 7 c12 3 16 6 10 7 -13 1 -19
21 -6 21 4 0 20 -12 35 -27z"/>
<path d="M5590 5631 c-87 -7 -151 -30 -234 -83 -33 -21 -63 -38 -68 -38 -21 0
-311 -317 -297 -326 6 -3 23 5 38 19 14 15 56 54 94 88 37 34 67 68 67 75 0
20 144 136 212 170 105 53 261 70 366 39 112 -34 232 -129 284 -226 20 -39 23
-58 23 -159 0 -88 -4 -123 -17 -151 -22 -45 -33 -115 -20 -122 13 -9 72 123
72 161 0 17 5 34 11 38 18 11 3 148 -27 236 -23 71 -31 82 -108 155 -76 72
-89 81 -152 97 -38 10 -73 23 -78 27 -11 9 -44 9 -166 0z"/>
<path d="M6000 5550 c0 -26 218 -105 237 -86 17 16 -33 41 -157 77 -77 22 -80
22 -80 9z"/>
<path d="M3664 5528 c3 -13 11 -76 16 -142 10 -108 9 -124 -9 -185 -24 -80
-53 -222 -47 -228 6 -7 46 82 46 102 0 9 5 26 12 38 22 40 32 121 30 250 -2
92 -6 136 -17 158 -18 34 -40 39 -31 7z"/>
<path d="M3855 4978 c-28 -15 -104 -89 -117 -113 -9 -16 -6 -15 16 5 15 14 31
24 34 23 8 -3 119 73 127 87 8 13 -35 12 -60 -2z"/>
<path d="M5876 4448 c-13 -60 -35 -200 -42 -261 -3 -37 -13 -74 -20 -82 -8 -7
-14 -20 -14 -27 0 -23 -79 -276 -125 -401 -47 -125 -52 -147 -35 -147 14 0 55
84 75 153 9 31 20 57 24 57 4 0 13 19 19 43 6 23 24 79 41 124 31 85 101 444
101 521 0 44 -16 57 -24 20z"/>
<path d="M5527 3513 c-2 -5 -12 -32 -21 -60 -10 -29 -23 -56 -30 -60 -7 -5
-27 -35 -46 -68 -81 -146 -213 -347 -254 -389 -40 -41 -75 -106 -58 -106 4 0
27 23 52 52 163 188 290 390 356 566 13 34 24 65 24 67 0 8 -18 6 -23 -2z"/>
<path d="M4602 2833 c-43 -8 -16 -28 41 -31 50 -3 117 16 117 33 0 6 -126 4
-158 -2z"/>
<path d="M2855 5837 c-98 -47 -180 -170 -193 -289 -5 -52 15 -175 32 -197 6
-8 20 -32 31 -54 17 -33 35 -48 105 -84 l85 -45 87 5 c101 5 155 28 203 85 16
20 39 45 50 56 11 11 20 25 22 31 1 5 10 30 20 55 12 31 17 74 18 140 0 80 -4
102 -23 137 -12 23 -31 47 -42 53 -11 6 -20 17 -20 24 0 16 -49 60 -89 81 -15
7 -74 16 -131 20 -97 6 -109 4 -155 -18z m258 -46 c62 -30 115 -85 144 -148
22 -47 24 -65 21 -136 -4 -77 -7 -86 -45 -143 -47 -68 -103 -122 -136 -128
-12 -3 -60 -7 -106 -10 -104 -5 -147 11 -214 83 -63 67 -77 103 -77 195 0 142
74 261 185 298 68 22 169 18 228 -11z"/>
<path d="M2875 5695 c-22 -15 -48 -38 -58 -51 -21 -29 -41 -144 -32 -191 8
-42 78 -119 122 -134 55 -18 138 -7 171 23 15 14 34 28 43 31 26 9 60 90 61
145 0 56 -25 113 -69 155 -32 30 -38 32 -133 42 -59 6 -68 4 -105 -20z m180
-46 c47 -41 65 -78 65 -131 0 -66 -42 -127 -104 -153 -66 -28 -128 -2 -170 69
-52 89 -25 181 69 230 50 26 99 21 140 -15z"/>
<path d="M2933 5588 c-47 -10 -58 -28 -47 -83 10 -56 39 -85 84 -85 30 0 43 6
64 31 14 17 26 37 26 45 0 28 -28 82 -48 93 -23 12 -21 12 -79 -1z m77 -56 c0
-16 -6 -36 -13 -46 -16 -22 -55 -18 -71 6 -14 22 27 68 61 68 19 0 23 -5 23
-28z"/>
<path d="M3864 4318 c3 -13 12 -56 18 -95 8 -50 16 -73 25 -73 19 0 16 102 -5
153 -17 41 -49 53 -38 15z"/>
<path d="M6325 3195 c3 -170 9 -332 14 -360 7 -34 8 54 6 270 -3 176 -9 338
-14 360 -7 28 -9 -56 -6 -270z"/>
<path d="M6170 2990 c0 -38 -4 -60 -11 -60 -9 0 -10 -69 -5 -270 7 -242 6
-270 -8 -270 -13 0 -16 -13 -16 -72 0 -84 9 -148 21 -148 17 0 41 155 50 339
9 180 6 447 -7 514 -10 48 -24 29 -24 -33z"/>
<path d="M6470 1909 c-13 -28 -29 -53 -36 -57 -15 -9 -28 -52 -16 -52 5 0 17
17 26 38 10 21 28 51 42 67 26 30 29 41 16 49 -5 3 -20 -17 -32 -45z"/>
</g>
</svg>
